<svg width="3058" height="2242" xmlns="http://www.w3.org/2000/svg" xmlns:xlink="http://www.w3.org/1999/xlink" xml:space="preserve" overflow="hidden"><g transform="translate(-640 -233)"><path d="M640 235 959 235 959 2390 640 2390Z" fill="#919191" fill-rule="evenodd"/><path d="M640 2151 3594 2151 3594 2470 640 2470Z" fill="#919191" fill-rule="evenodd"/><path d="M3589 2469 651 2433.23 651.319 235 731.16 235 730.84 2354.4 3590 2389.56Z" fill="#717171" fill-rule="evenodd"/><path d="M970.867 233 911 2229 3605 2149.16 970.867 2149.16Z" fill="#717171" fill-rule="evenodd"/><path d="M651.273 233 674.624 781.743 692.866 1330.57C705.998 1696.46 711.906 2062.47 720.807 2428.41L691.828 2399.59C1177.49 2402.7 1662.99 2415.4 2148.57 2423.06L2876.85 2442.46C3119.58 2450.41 3362.31 2457.99 3605 2468.65 3362.15 2472.72 3119.3 2473.68 2876.37 2475L2147.9 2474.52C1662.31 2468.97 1176.65 2468.41 691.11 2458.27L662.49 2457.67 662.13 2429.45C657.699 2063.43 650.155 1697.42 649.876 1331.32L648 782.222 651.273 233Z" fill="#4B4B4B" fill-rule="evenodd" fill-opacity="0.6"/><path d="M967.5 368.5 1583.98 368.5 1583.98 1147.09 2200.46 1147.09" stroke="#FB8C00" stroke-width="183.333" stroke-miterlimit="8" fill="none" fill-rule="evenodd"/><path d="M0 0 542.279 0 542.279 559.799 1084.56 559.799" stroke="#FB8C00" stroke-width="183.333" stroke-miterlimit="8" fill="none" fill-rule="evenodd" transform="matrix(-1.83697e-16 -1 -1 1.83697e-16 2678.3 2140.06)"/><path d="M976.5 371.5 1813.39 371.5 1813.39 788.092 2650.29 788.092" stroke="#C65000" stroke-width="183.333" stroke-miterlimit="8" fill="none" fill-rule="evenodd"/><path d="M0 0 444.728 0 444.728 750.869 889.456 750.869" stroke="#C65000" stroke-width="183.333" stroke-miterlimit="8" fill="none" fill-rule="evenodd" transform="matrix(-1.83697e-16 -1 -1 1.83697e-16 3317.37 1597.96)"/><path d="M3317.5 1505.5 3605.55 1505.5" stroke="#C65000" stroke-width="183.333" stroke-miterlimit="8" fill="none" fill-rule="evenodd"/><path d="M973 444 1734.09 444 1734.09 861.185 2495.19 861.185" stroke="#9D160C" stroke-width="45.8333" stroke-miterlimit="8" fill="none" fill-rule="evenodd"/><path d="M3227.8 1232.17 2488.41 1232.17 2488.41 862.5 2490.5 862.5" stroke="#9D160C" stroke-width="22.9167" stroke-miterlimit="8" fill="none" fill-rule="evenodd"/><path d="M3227.5 1590.5 3605.61 1590.5" stroke="#9D160C" stroke-width="22.9167" stroke-miterlimit="8" fill="none" fill-rule="evenodd"/><path d="M0 0 0.000360892 369.749" stroke="#9D160C" stroke-width="22.9167" stroke-miterlimit="8" fill="none" fill-rule="evenodd" transform="matrix(1 0 0 -1 3237.5 1587.25)"/><path d="M0 0 756.216 0 756.216 541.522 1215.02 541.522" stroke="#C65000" stroke-width="45.8333" stroke-miterlimit="8" fill="none" fill-rule="evenodd" transform="matrix(1.83697e-16 1 1 -1.83697e-16 1499 472)"/><path d="M0 0 454.36 0 454.36 561.704 908.72 561.704" stroke="#C65000" stroke-width="45.8333" stroke-miterlimit="8" fill="none" fill-rule="evenodd" transform="matrix(-1.83697e-16 -1 -1 1.83697e-16 2599.7 2146.72)"/><path d="M3227.3 1231.67 2487.91 1231.67 2487.91 862 2490 862" stroke="#9D160C" stroke-width="45.8333" stroke-miterlimit="8" fill="none" fill-rule="evenodd"/><path d="M3227 1591 3605.11 1591" stroke="#9D160C" stroke-width="45.8333" stroke-miterlimit="8" fill="none" fill-rule="evenodd"/><path d="M0 0 0.000360892 369.749" stroke="#9D160C" stroke-width="45.8333" stroke-miterlimit="8" fill="none" fill-rule="evenodd" transform="matrix(1 0 0 -1 3237 1587.75)"/></g></svg>